<svg xmlns="http://www.w3.org/2000/svg" height="800" width="1200" version="1.1" id="svg2" xml:space="preserve" fill-rule="evenodd" viewBox="-40.90305 -66.23925 354.4931 397.4355"><defs id="defs4"><style id="style6" type="text/css">.fil0,.fil1,.fil3{fill-rule:nonzero}.fil1,.fil3{fill:#008061}.fil3{fill:#ed1b2d}.fil0{fill:#fff}</style></defs><g transform="translate(-14.39 -13.311)" id="g2862"><path id="polygon10" class="fil0" transform="matrix(.89813 0 0 .89516 15.772 15.322)" fill="#fff" fill-rule="nonzero" d="M300.806 292.277H0V0h300.806z"/><path id="polygon12" class="fil1" fill="#008061" fill-rule="nonzero" d="M287.078 278.268H14.391V13.311h272.687z"/><path id="path14" d="M182.519 260.835v10.608h-65.403v-10.628h-49.49c-4.837 0-8.776-5.054-8.776-11.286L38.142 40.088c0-6.236 4.835-11.294 10.803-11.294h199.99c5.929 0 10.765 5.058 10.765 11.294l-20.475 209.44c0 6.233-3.94 11.287-8.775 11.287l-47.931.02z" class="fil0" fill="#fff" fill-rule="nonzero"/><path id="path16" d="M74.567 59.459h133.887c-13.182 4.941-53.313 32.112-63.335 50.38H74.685l-.118-50.38z" fill="#f5821f" fill-rule="nonzero"/><path id="path18" d="M181.272 203.817c-1.911 18.244-1.99 40.462-1.99 63.8h-58.03c0-23.338.974-45.556 2.885-63.8h57.135z" class="fil3" fill="#ed1b2d" fill-rule="nonzero"/><path id="polygon20" class="fil1" fill="#008061" fill-rule="nonzero" d="M82.212 184.524v7.074h9.282v8.105H70.278v-37.717h21.216v8.401h-9.282v7.066h9.282v7.071z"/><path id="polygon22" class="fil1" fill="#008061" fill-rule="nonzero" d="M131.586 184.524v7.074h9.242v8.105h-21.176v-37.717h21.176v8.401h-9.242v7.066h9.242v7.071z"/><path id="polygon24" class="fil1" fill="#008061" fill-rule="nonzero" d="M185.912 184.524v7.074h9.282v8.105h-21.216v-37.717h21.216v8.401h-9.282v7.066h9.282v7.071z"/><path id="polygon26" class="fil1" fill="#008061" fill-rule="nonzero" d="M116.687 191.598v8.105H95.472v-37.717h11.934v29.612z"/><path id="polygon28" class="fil1" fill="#008061" fill-rule="nonzero" d="M143.013 161.986l5.927 37.717h15.327l7.176-37.717h-8.853l-4.64 25.491-4.525-25.491z"/><path id="polygon30" class="fil1" fill="#008061" fill-rule="nonzero" d="M211.692 199.699h-11.467v-37.713h11.467z"/><path id="path32" d="M211.691 173.183c.624-4.13 6.474-3.022 6.474-.663v27.183h11.505v-31.968c0-6.779-9.555-9.505-17.9-3.538l-.079 8.986z" class="fil1" fill="#008061" fill-rule="nonzero"/><path id="path34" d="M186.654 156.682c1.17-14.434 20.942-38.005 40.091-44.195V56.803c-52.688 23.572-86.93 59.222-94.34 99.738l54.249.14z" class="fil3" fill="#ed1b2d" fill-rule="nonzero"/></g></svg>